<?xml version="1.0" encoding="UTF-8" standalone="no"?>
<!-- Generator: Adobe Adobe Illustrator 24.2.0, SVG Export Plug-In . SVG Version: 6.00 Build 0)  -->

<svg
   version="1.1"
   id="레이어_1"
   x="0px"
   y="0px"
   width="218.57001"
   height="99.469368"
   viewBox="0 0 218.57 99.469363"
   xml:space="preserve"
   sodipodi:docname="NpiecePunkLogo.svg"
   inkscape:export-filename="../b0226227/npiece.svg"
   inkscape:export-xdpi="96"
   inkscape:export-ydpi="96"
   xmlns:inkscape="http://www.inkscape.org/namespaces/inkscape"
   xmlns:sodipodi="http://sodipodi.sourceforge.net/DTD/sodipodi-0.dtd"
   xmlns="http://www.w3.org/2000/svg"
   xmlns:svg="http://www.w3.org/2000/svg"><defs
   id="defs91" /><sodipodi:namedview
   id="namedview89"
   pagecolor="#ffffff"
   bordercolor="#000000"
   borderopacity="0.25"
   inkscape:showpageshadow="2"
   inkscape:pageopacity="0.0"
   inkscape:pagecheckerboard="0"
   inkscape:deskcolor="#d1d1d1"
   showgrid="false" />
<style
   type="text/css"
   id="style18">
	.st0{fill:#040000;}
</style>
<path
   class="st0"
   d="m 176.76,0.01000149 h -16.3 c -5.42,0 -10.47,2.16000001 -14.22,6.09000001 -3.74,3.9199995 -5.66,9.0799995 -5.41,14.5099995 0.5,10.48 9.35,18.7 20.17,18.7 h 15.76 c 1.84,0 3.34,-1.5 3.34,-3.34 v -1.13 c 0,-1.84 -1.5,-3.34 -3.34,-3.34 h -15.87 c -6.45,0 -11.82,-4.84 -12.23,-11.02 -0.22,-3.31 0.91,-6.46 3.17,-8.88 2.23,-2.3799995 5.38,-3.7499995 8.63,-3.7499995 h 16.3 c 1.84,0 3.34,-1.5 3.34,-3.34 v -1.14 c 0,-1.86 -1.5,-3.36000001 -3.34,-3.36000001 z"
   id="path20"
   style="fill:#ffd42a"
   inkscape:export-filename="../8345f778/asd.svg"
   inkscape:export-xdpi="96"
   inkscape:export-ydpi="96" />
<path
   class="st0"
   d="m 96.18,0.02000149 h -1.14 c -1.84,0 -3.34,1.50000001 -3.34,3.34000001 V 35.950001 c 0,1.84 1.5,3.34 3.34,3.34 h 1.14 c 1.84,0 3.34,-1.5 3.34,-3.34 V 3.3600015 c 0.01,-1.84 -1.49,-3.34000001 -3.34,-3.34000001 z"
   id="path22"
   style="fill:#ffd42a" />
<path
   class="st0"
   d="m 35.95,0.01000149 h -1.16 c -1.84,0 -3.34,1.50000001 -3.34,3.34000001 V 27.450001 L 7.6500003,1.4700015 l -0.73,-0.56000001 c -1.31,-1.01 -3.04,-1.18 -4.52,-0.45 C 0.92000028,1.1900015 2.7739455e-7,2.6700015 2.7739455e-7,4.3200015 V 35.970001 c 0,1.84 1.50000002260545,3.34 3.34000002260545,3.34 h 1.16 c 1.84,0 3.34,-1.5 3.34,-3.34 v -24.17 l 23.7999997,25.98 0.73,0.56 c 1.31,1.01 3.04,1.18 4.52,0.45 1.48,-0.73 2.4,-2.21 2.4,-3.86 V 3.3500015 c 0,-1.84 -1.5,-3.34000001 -3.34,-3.34000001 z"
   id="path24"
   style="fill:#ffd42a" />
<path
   class="st0"
   d="M 75.31,1.4892657e-6 50.54,0.01000149 c -1.84,0 -3.34,1.50000001 -3.34,3.34000001 V 35.960001 c 0,1.84 1.5,3.34 3.34,3.34 h 1.13 c 1.84,0 3.34,-1.5 3.34,-3.34 v -14.27 H 76.3 l 0.5,-0.07 v -0.04 c 1.01,-0.13 2.01,-0.42 2.98,-0.87 3.85,-1.74 6.34,-5.62 6.34,-9.87 C 86.12,7.9600015 85,5.2300015 82.95,3.1600015 80.92,1.1300015 78.2,1.4892657e-6 75.31,1.4892657e-6 Z M 78.31,10.850001 c 0,1.19 -0.7,2.27 -1.79,2.76 -0.36,0.18 -0.75,0.27 -1.21,0.27 H 55.02 V 7.8300015 h 20.29 c 0.8,0 1.51,0.29 2.09,0.84 0.42,0.44 0.91,1.17 0.91,2.1799995 z"
   id="path26"
   style="fill:#ffd42a" />
<path
   class="st0"
   d="m 134.75,0.02000149 h -25.58 c -2.15,0 -3.9,1.75000001 -3.9,3.90000001 0,2.15 1.75,3.9 3.9,3.9 h 25.58 c 2.15,0 3.9,-1.75 3.9,-3.9 0,-2.15 -1.75,-3.90000001 -3.9,-3.90000001 z"
   id="path28"
   style="fill:#ffd42a" />
<path
   class="st0"
   d="m 109.17,23.560001 h 20.95 c 2.15,0 3.9,-1.75 3.9,-3.9 0,-2.15 -1.75,-3.9 -3.9,-3.9 h -20.95 c -2.15,0 -3.9,1.75 -3.9,3.9 0,2.15 1.75,3.9 3.9,3.9 z"
   id="path30"
   style="fill:#ffd42a" />
<path
   class="st0"
   d="m 134.75,31.510001 h -25.58 c -2.15,0 -3.9,1.75 -3.9,3.9 0,2.15 1.75,3.9 3.9,3.9 h 25.58 c 2.15,0 3.9,-1.75 3.9,-3.9 0,-2.15 -1.75,-3.9 -3.9,-3.9 z"
   id="path32"
   style="fill:#ffd42a" />
<path
   class="st0"
   d="m 189.09,7.8200015 h 25.58 c 2.15,0 3.9,-1.75 3.9,-3.9 0,-2.15 -1.75,-3.90000001 -3.9,-3.90000001 h -25.58 c -2.15,0 -3.9,1.75000001 -3.9,3.90000001 0,2.15 1.75,3.9 3.9,3.9 z"
   id="path34"
   style="fill:#ffd42a" />
<path
   class="st0"
   d="m 189.09,23.560001 h 20.95 c 2.15,0 3.9,-1.75 3.9,-3.9 0,-2.15 -1.75,-3.9 -3.9,-3.9 h -20.95 c -2.15,0 -3.9,1.75 -3.9,3.9 0,2.15 1.75,3.9 3.9,3.9 z"
   id="path36"
   style="fill:#ffd42a" />
<path
   class="st0"
   d="m 214.67,31.510001 h -25.58 c -2.15,0 -3.9,1.75 -3.9,3.9 0,2.15 1.75,3.9 3.9,3.9 h 25.58 c 2.15,0 3.9,-1.75 3.9,-3.9 0,-2.15 -1.75,-3.9 -3.9,-3.9 z"
   id="path38"
   style="fill:#ffd42a" />
<path
   class="st0"
   d="m 149.32,58.910001 h -1.16 c -1.84,0 -3.34,1.5 -3.34,3.34 v 24.100001 l -23.8,-25.980001 -0.73,-0.56 c -1.31,-1.01 -3.04,-1.18 -4.52,-0.45 -1.48,0.73 -2.4,2.21 -2.4,3.86 v 31.650001 c 0,1.84 1.5,3.34 3.34,3.34 h 1.16 c 1.84,0 3.34,-1.5 3.34,-3.34 V 70.700001 l 23.8,25.980001 0.73,0.56 c 1.31,1.01 3.04,1.18 4.52,0.45 1.48,-0.73 2.4,-2.21 2.4,-3.86 V 62.250001 c 0.01,-1.84 -1.49,-3.34 -3.34,-3.34 z"
   id="path40"
   style="fill:#ffd42a" />
<path
   class="st0"
   d="m 65.49,62.250001 v 16.300001 c 0,5.42 2.16,10.47 6.09,14.22 3.92,3.74 9.08,5.66 14.51,5.41 10.48,-0.5 18.7,-9.35 18.7,-20.17 V 62.250001 c 0,-1.84 -1.5,-3.34 -3.34,-3.34 h -1.13 c -1.84,0 -3.34,1.5 -3.34,3.34 v 15.870001 c 0,6.45 -4.84,11.82 -11.02,12.23 -3.31,0.22 -6.46,-0.91 -8.88,-3.17 -2.38,-2.23 -3.75,-5.38 -3.75,-8.63 V 62.250001 c 0,-1.84 -1.5,-3.34 -3.34,-3.34 h -1.14 c -1.86,0 -3.36,1.5 -3.36,3.34 z"
   id="path42"
   style="fill:#ffd42a" />
<path
   class="st0"
   d="m 46.94,58.910001 -24.77,0.01 c -1.84,0 -3.34,1.5 -3.34,3.34 v 32.610001 c 0,1.84 1.5,3.34 3.34,3.34 h 1.13 c 1.84,0 3.34,-1.5 3.34,-3.34 v -14.27 h 21.29 l 0.5,-0.07 v -0.04 c 1.01,-0.13 2.01,-0.42 2.98,-0.87 3.85,-1.74 6.34,-5.62 6.34,-9.870001 0,-2.88 -1.12,-5.61 -3.17,-7.68 -2.03,-2.04 -4.75,-3.16 -7.64,-3.16 z m 3,10.84 c 0,1.19 -0.7,2.27 -1.79,2.76 -0.36,0.18 -0.75,0.27 -1.21,0.27 H 26.65 v -6.05 h 20.29 c 0.8,0 1.51,0.29 2.09,0.84 0.42,0.44 0.91,1.18 0.91,2.18 z"
   id="path44"
   style="fill:#ffd42a" />
<path
   class="st0"
   d="m 166.87,58.920001 h -1.14 c -1.84,0 -3.34,1.5 -3.34,3.34 v 32.590001 c 0,1.84 1.5,3.34 3.34,3.34 h 1.14 c 1.84,0 3.34,-1.5 3.34,-3.34 V 62.260001 c 0,-1.84 -1.5,-3.34 -3.34,-3.34 z"
   id="path46"
   style="fill:#ffd42a" />
<path
   class="st0"
   d="m 194.21,59.710001 -18.78,11.43 c -1.58,0.96 -2,3.310001 -0.95,5.250001 1.06,1.93 3.2,2.72 4.77,1.76 l 18.78,-11.430001 c 1.58,-0.96 2,-3.32 0.95,-5.25 -1.05,-1.93 -3.2,-2.73 -4.77,-1.76 z"
   id="path48"
   style="fill:#ffd42a" />
<path
   class="st0"
   d="m 197.37,92.600002 -16.15,-14.92 c -1.36,-1.25 -3.61,-0.9 -5.03,0.79 -1.42,1.69 -1.46,4.08 -0.11,5.33 l 16.15,14.92 c 1.36,1.25 3.61,0.9 5.03,-0.78 1.42,-1.7 1.47,-4.09 0.11,-5.34 z"
   id="path50"
   style="fill:#ffd42a" />
<g
   id="g86"
   transform="translate(-312.25,-263.47)"
   style="fill:#ffd42a">
	<path
   class="st0"
   d="m 312.67,313.8 c 0.31,0.19 0.77,0.35 1.25,0.35 0.71,0 1.13,-0.38 1.13,-0.92 0,-0.5 -0.29,-0.79 -1.02,-1.07 -0.88,-0.31 -1.42,-0.77 -1.42,-1.53 0,-0.84 0.7,-1.46 1.74,-1.46 0.55,0 0.95,0.13 1.19,0.26 l -0.19,0.57 c -0.18,-0.1 -0.54,-0.26 -1.02,-0.26 -0.74,0 -1.02,0.44 -1.02,0.81 0,0.5 0.33,0.75 1.07,1.04 0.91,0.35 1.38,0.79 1.38,1.58 0,0.83 -0.62,1.55 -1.89,1.55 -0.52,0 -1.09,-0.15 -1.38,-0.34 z"
   id="path52"
   style="fill:#ffd42a" />
	<path
   class="st0"
   d="m 325.23,309.85 h -1.64 v -0.59 h 3.99 v 0.59 h -1.65 v 4.8 h -0.7 z"
   id="path54"
   style="fill:#ffd42a" />
	<path
   class="st0"
   d="m 340.29,311.9 c 0,1.85 -1.13,2.84 -2.5,2.84 -1.42,0 -2.42,-1.1 -2.42,-2.73 0,-1.71 1.06,-2.83 2.5,-2.83 1.47,-0.01 2.42,1.12 2.42,2.72 z m -4.18,0.09 c 0,1.15 0.62,2.18 1.72,2.18 1.1,0 1.73,-1.02 1.73,-2.24 0,-1.07 -0.56,-2.19 -1.72,-2.19 -1.16,0 -1.73,1.06 -1.73,2.25 z"
   id="path56"
   style="fill:#ffd42a" />
	<path
   class="st0"
   d="m 348.69,309.33 c 0.34,-0.06 0.78,-0.1 1.34,-0.1 0.69,0 1.19,0.16 1.51,0.45 0.3,0.26 0.47,0.65 0.47,1.13 0,0.49 -0.14,0.87 -0.42,1.15 -0.37,0.39 -0.97,0.59 -1.65,0.59 -0.21,0 -0.4,-0.01 -0.56,-0.05 v 2.16 h -0.7 v -5.33 z m 0.7,2.59 c 0.15,0.04 0.34,0.06 0.58,0.06 0.84,0 1.35,-0.41 1.35,-1.15 0,-0.71 -0.5,-1.05 -1.27,-1.05 -0.3,0 -0.54,0.02 -0.66,0.06 z"
   id="path58"
   style="fill:#ffd42a" />
	<path
   class="st0"
   d="m 368.81,309.85 h -1.64 v -0.59 h 3.99 v 0.59 h -1.65 v 4.8 h -0.7 z"
   id="path60"
   style="fill:#ffd42a" />
	<path
   class="st0"
   d="m 379.96,309.26 v 2.25 h 2.61 v -2.25 h 0.7 v 5.39 h -0.7 v -2.53 h -2.61 v 2.53 h -0.7 v -5.39 z"
   id="path62"
   style="fill:#ffd42a" />
	<path
   class="st0"
   d="m 392.67,309.26 v 5.39 h -0.7 v -5.39 z"
   id="path64"
   style="fill:#ffd42a" />
	<path
   class="st0"
   d="m 401.39,314.65 v -5.39 h 0.76 l 1.73,2.73 c 0.4,0.63 0.71,1.2 0.97,1.75 l 0.02,-0.01 c -0.06,-0.72 -0.08,-1.38 -0.08,-2.21 v -2.25 h 0.66 v 5.39 h -0.7 l -1.71,-2.73 c -0.38,-0.6 -0.74,-1.22 -1.01,-1.8 l -0.02,0.01 c 0.04,0.68 0.06,1.33 0.06,2.22 v 2.3 h -0.68 z"
   id="path66"
   style="fill:#ffd42a" />
	<path
   class="st0"
   d="m 414.15,309.26 h 0.7 v 2.6 h 0.02 c 0.14,-0.21 0.29,-0.4 0.42,-0.58 l 1.65,-2.02 h 0.86 l -1.95,2.29 2.1,3.1 h -0.82 l -1.77,-2.65 -0.51,0.59 v 2.05 h -0.7 z"
   id="path68"
   style="fill:#ffd42a" />
	<path
   class="st0"
   d="m 426.68,309.26 v 5.39 h -0.7 v -5.39 z"
   id="path70"
   style="fill:#ffd42a" />
	<path
   class="st0"
   d="m 435.39,314.65 v -5.39 h 0.76 l 1.73,2.73 c 0.4,0.63 0.71,1.2 0.97,1.75 l 0.02,-0.01 c -0.06,-0.72 -0.08,-1.38 -0.08,-2.21 v -2.25 h 0.66 v 5.39 h -0.7 l -1.71,-2.73 c -0.38,-0.6 -0.74,-1.22 -1.01,-1.8 l -0.02,0.01 c 0.04,0.68 0.06,1.33 0.06,2.22 v 2.3 h -0.68 z"
   id="path72"
   style="fill:#ffd42a" />
	<path
   class="st0"
   d="m 452.26,314.41 c -0.31,0.11 -0.93,0.3 -1.65,0.3 -0.82,0 -1.49,-0.21 -2.02,-0.71 -0.46,-0.45 -0.75,-1.17 -0.75,-2.01 0.01,-1.61 1.11,-2.78 2.92,-2.78 0.62,0 1.11,0.14 1.34,0.25 l -0.17,0.57 c -0.29,-0.13 -0.65,-0.23 -1.19,-0.23 -1.31,0 -2.17,0.82 -2.17,2.17 0,1.37 0.82,2.17 2.08,2.17 0.46,0 0.77,-0.06 0.93,-0.14 v -1.61 h -1.1 v -0.56 h 1.77 v 2.58 z"
   id="path74"
   style="fill:#ffd42a" />
	<path
   class="st0"
   d="m 472.26,314.41 c -0.31,0.11 -0.93,0.3 -1.65,0.3 -0.82,0 -1.49,-0.21 -2.02,-0.71 -0.46,-0.45 -0.75,-1.17 -0.75,-2.01 0.01,-1.61 1.11,-2.78 2.92,-2.78 0.62,0 1.11,0.14 1.34,0.25 l -0.17,0.57 c -0.29,-0.13 -0.65,-0.23 -1.19,-0.23 -1.31,0 -2.17,0.82 -2.17,2.17 0,1.37 0.82,2.17 2.08,2.17 0.46,0 0.77,-0.06 0.93,-0.14 v -1.61 h -1.1 v -0.56 h 1.77 v 2.58 z"
   id="path76"
   style="fill:#ffd42a" />
	<path
   class="st0"
   d="m 485.43,311.9 c 0,1.85 -1.13,2.84 -2.5,2.84 -1.42,0 -2.42,-1.1 -2.42,-2.73 0,-1.71 1.06,-2.83 2.5,-2.83 1.47,-0.01 2.42,1.12 2.42,2.72 z m -4.18,0.09 c 0,1.15 0.62,2.18 1.72,2.18 1.1,0 1.73,-1.02 1.73,-2.24 0,-1.07 -0.56,-2.19 -1.72,-2.19 -1.15,0 -1.73,1.06 -1.73,2.25 z"
   id="path78"
   style="fill:#ffd42a" />
	<path
   class="st0"
   d="m 501.18,309.33 c 0.3,-0.06 0.78,-0.11 1.27,-0.11 0.7,0 1.14,0.12 1.48,0.39 0.28,0.21 0.45,0.53 0.45,0.95 0,0.52 -0.34,0.98 -0.91,1.18 v 0.02 c 0.51,0.13 1.11,0.55 1.11,1.35 0,0.46 -0.18,0.82 -0.46,1.08 -0.38,0.34 -0.98,0.5 -1.86,0.5 -0.48,0 -0.85,-0.03 -1.08,-0.06 z m 0.69,2.21 h 0.63 c 0.74,0 1.17,-0.38 1.17,-0.9 0,-0.63 -0.48,-0.88 -1.18,-0.88 -0.32,0 -0.5,0.02 -0.62,0.05 z m 0,2.58 c 0.14,0.02 0.33,0.03 0.58,0.03 0.72,0 1.38,-0.26 1.38,-1.05 0,-0.74 -0.63,-1.04 -1.39,-1.04 h -0.58 v 2.06 z"
   id="path80"
   style="fill:#ffd42a" />
	<path
   class="st0"
   d="m 513.71,309.26 v 3.19 c 0,1.21 0.54,1.72 1.25,1.72 0.8,0 1.31,-0.53 1.31,-1.72 v -3.19 h 0.7 v 3.14 c 0,1.66 -0.87,2.33 -2.04,2.33 -1.1,0 -1.93,-0.63 -1.93,-2.3 v -3.17 z"
   id="path82"
   style="fill:#ffd42a" />
	<path
   class="st0"
   d="m 526.88,314.65 v -2.29 l -1.7,-3.1 h 0.79 l 0.76,1.49 c 0.21,0.41 0.37,0.74 0.54,1.11 h 0.02 c 0.15,-0.35 0.34,-0.7 0.54,-1.11 l 0.78,-1.49 h 0.79 l -1.81,3.09 v 2.29 h -0.71 z"
   id="path84"
   style="fill:#ffd42a" />
</g>
</svg>
