<?xml version="1.0" standalone="no"?>
<!DOCTYPE svg PUBLIC "-//W3C//DTD SVG 20010904//EN"
 "http://www.w3.org/TR/2001/REC-SVG-20010904/DTD/svg10.dtd">
<svg version="1.0" xmlns="http://www.w3.org/2000/svg"
 width="990.000000pt" height="990.000000pt" viewBox="0 0 990.000000 990.000000"
 preserveAspectRatio="xMidYMid meet">
<metadata>
Created by potrace 1.14, written by Peter Selinger 2001-2017
</metadata>
<g transform="translate(0.000000,990.000000) scale(0.100000,-0.100000)"
fill="#000000" stroke="none">
<path d="M3300 9735 l0 -165 -165 0 -165 0 0 -330 0 -330 -165 0 -165 0 0
-165 0 -165 165 0 165 0 0 165 0 165 165 0 165 0 0 330 0 330 660 0 660 0 0
-165 0 -165 165 0 165 0 0 -165 0 -165 165 0 165 0 0 165 0 165 -165 0 -165 0
0 165 0 165 330 0 330 0 0 165 0 165 -330 0 -330 0 0 -165 0 -165 -165 0 -165
0 0 165 0 165 -660 0 -660 0 0 -165z"/>
<path d="M3960 9075 l0 -165 165 0 165 0 0 165 0 165 -165 0 -165 0 0 -165z"/>
<path d="M5610 8745 l0 -495 165 0 165 0 0 495 0 495 -165 0 -165 0 0 -495z"/>
<path d="M1980 8745 l0 -165 -165 0 -165 0 0 -330 0 -330 330 0 330 0 0 165 0
165 -165 0 -165 0 0 165 0 165 165 0 165 0 0 165 0 165 -165 0 -165 0 0 -165z"/>
<path d="M3630 8415 l0 -165 825 0 825 0 0 165 0 165 -825 0 -825 0 0 -165z"/>
<path d="M2640 7590 l0 -660 -165 0 -165 0 0 -2145 0 -2145 165 0 165 0 0
-660 0 -660 -495 0 -495 0 0 -165 0 -165 -165 0 -165 0 0 -495 0 -495 1815 0
1815 0 0 330 0 330 -165 0 -165 0 0 330 0 330 -330 0 -330 0 0 165 0 165 825
0 825 0 0 330 0 330 165 0 165 0 0 1485 0 1485 165 0 165 0 0 495 0 495 -165
0 -165 0 0 495 0 495 -165 0 -165 0 0 330 0 330 -165 0 -165 0 0 -660 0 -660
-165 0 -165 0 0 165 0 165 -165 0 -165 0 0 165 0 165 -330 0 -330 0 0 -165 0
-165 -165 0 -165 0 0 -165 0 -165 -165 0 -165 0 0 330 0 330 -165 0 -165 0 0
495 0 495 -165 0 -165 0 0 -660z m2970 -2640 l0 -330 -165 0 -165 0 0 -330 0
-330 165 0 165 0 0 -825 0 -825 -165 0 -165 0 0 -165 0 -165 -825 0 -825 0 0
-330 0 -330 -330 0 -330 0 0 660 0 660 -165 0 -165 0 0 1320 0 1320 1485 0
1485 0 0 -330z"/>
<path d="M3300 4785 l0 -165 -165 0 -165 0 0 -330 0 -330 165 0 165 0 0 -165
0 -165 330 0 330 0 0 165 0 165 330 0 330 0 0 -165 0 -165 330 0 330 0 0 165
0 165 -330 0 -330 0 0 330 0 330 330 0 330 0 0 165 0 165 -330 0 -330 0 0
-165 0 -165 -330 0 -330 0 0 165 0 165 -330 0 -330 0 0 -165z m660 -495 l0
-330 -330 0 -330 0 0 330 0 330 330 0 330 0 0 -330z"/>
<path d="M3300 2805 l0 -165 165 0 165 0 0 -165 0 -165 330 0 330 0 0 165 0
165 -330 0 -330 0 0 165 0 165 -165 0 -165 0 0 -165z"/>
</g>
</svg>
